<?xml version="1.0" standalone="no"?>
<!DOCTYPE svg PUBLIC "-//W3C//DTD SVG 20010904//EN"
 "http://www.w3.org/TR/2001/REC-SVG-20010904/DTD/svg10.dtd">
<svg version="1.0" xmlns="http://www.w3.org/2000/svg"
 width="225.000000pt" height="225.000000pt" viewBox="0 0 225.000000 225.000000"
 preserveAspectRatio="xMidYMid meet">

<g transform="translate(0.000000,225.000000) scale(0.100000,-0.100000)"
fill="#000000" stroke="none">
<path d="M995 2168 c-2 -7 -6 -33 -7 -57 l-3 -45 -85 -22 c-47 -12 -94 -25
-105 -29 -16 -4 -25 3 -43 35 -14 26 -30 40 -42 40 -23 0 -191 -92 -210 -115
-11 -14 -10 -24 8 -61 l22 -45 -74 -75 -73 -75 -46 22 c-38 19 -48 20 -62 9
-23 -19 -115 -186 -115 -209 0 -13 15 -28 41 -43 32 -18 39 -26 34 -43 -4 -11
-17 -58 -29 -105 l-23 -85 -54 -5 -54 -5 0 -130 0 -130 54 -5 54 -5 23 -85
c12 -47 25 -94 29 -105 5 -16 -2 -24 -30 -39 -60 -33 -60 -41 7 -159 34 -59
68 -107 75 -107 8 0 32 9 54 21 l41 20 74 -74 75 -75 -22 -45 c-19 -38 -20
-48 -10 -61 20 -24 186 -116 209 -116 14 0 29 13 44 40 18 32 27 39 43 34 11
-3 58 -16 105 -28 l85 -23 5 -54 5 -54 130 0 130 0 5 54 5 55 70 17 c39 9 83
22 98 28 40 16 41 15 65 -28 12 -21 28 -41 35 -44 14 -5 188 89 215 117 15 14
14 20 -6 62 l-23 47 75 74 75 75 41 -23 c31 -18 45 -21 58 -13 24 15 131 205
125 221 -3 7 -23 23 -45 35 -31 18 -38 26 -33 43 4 11 17 58 29 105 l23 85 54
5 54 5 0 130 0 130 -54 5 -54 5 -23 85 c-12 47 -25 94 -28 105 -5 16 2 25 34
43 25 14 40 30 40 42 0 22 -70 152 -106 197 l-22 28 -47 -23 -46 -22 -75 74
-75 74 23 46 c20 42 21 48 6 62 -27 28 -201 122 -215 117 -7 -3 -23 -23 -35
-45 -18 -31 -26 -38 -43 -33 -11 4 -58 17 -105 29 l-85 23 -5 54 -5 54 -128 3
c-96 2 -128 0 -132 -10z m207 -110 l3 -53 80 -17 c44 -9 107 -26 139 -37 33
-12 65 -21 72 -21 8 0 23 18 34 40 11 22 23 40 26 40 4 0 31 -14 61 -31 57
-33 57 -33 32 -95 l-12 -31 107 -108 108 -109 31 13 c64 25 63 26 97 -34 35
-62 36 -59 -24 -91 -31 -17 -32 -33 -1 -114 9 -25 24 -81 34 -125 l16 -80 53
-3 52 -3 0 -74 0 -74 -52 -3 -52 -3 -17 -80 c-10 -44 -27 -107 -38 -139 -23
-63 -20 -91 7 -101 9 -3 25 -12 36 -20 17 -13 17 -16 -14 -69 -34 -60 -41 -63
-80 -41 -44 25 -63 18 -107 -38 -23 -29 -66 -73 -97 -98 -61 -48 -66 -67 -37
-116 22 -36 23 -34 -52 -77 -47 -27 -49 -27 -62 -9 -8 10 -17 26 -20 35 -10
28 -42 31 -103 8 -31 -12 -93 -30 -137 -39 l-80 -17 -3 -52 -3 -52 -74 0 -74
0 -3 52 -3 52 -80 17 c-44 9 -105 26 -135 38 -76 29 -86 27 -110 -19 -11 -22
-23 -40 -26 -40 -17 0 -114 63 -114 73 1 7 7 23 15 37 25 43 17 62 -45 113
-33 26 -76 70 -97 97 -40 52 -61 59 -103 35 -14 -8 -30 -14 -37 -15 -9 0 -73
99 -73 115 0 2 18 14 40 25 22 11 40 26 40 34 0 7 -9 39 -21 72 -11 32 -28 95
-37 139 l-17 80 -53 3 -52 3 0 74 0 74 52 3 52 3 17 80 c10 44 27 107 38 139
27 76 26 83 -6 100 -59 32 -58 29 -24 90 35 60 42 63 81 41 43 -24 62 -17 108
40 23 30 67 74 97 97 57 46 64 65 40 108 -22 39 -19 46 41 81 61 34 58 35 90
-23 17 -34 32 -34 104 -7 30 12 91 29 135 38 l80 17 3 52 3 52 74 0 74 0 3
-52z"/>
<path d="M1000 1879 c-462 -202 -448 -194 -437 -223 3 -8 51 -38 107 -66 l100
-50 0 -190 0 -189 -117 -3 -118 -3 -3 -133 c-2 -111 0 -133 13 -138 12 -5 15
-31 15 -155 0 -136 2 -149 19 -159 30 -15 1043 -14 1059 2 7 7 12 38 12 70 0
54 2 58 23 58 13 0 28 5 35 12 16 16 16 210 0 226 -7 7 -29 12 -50 12 l-38 0
0 93 c0 59 -4 97 -12 105 -9 9 4 12 59 12 50 0 74 4 83 15 8 10 11 45 8 111
-3 94 -4 96 -35 125 l-33 29 0 102 c0 57 -4 108 -8 114 -10 16 -528 274 -549
274 -10 0 -70 -23 -133 -51z m620 -372 c0 -68 -2 -75 -24 -87 -38 -20 -48 -57
-44 -164 l3 -97 -38 3 -38 3 0 179 c0 98 2 180 4 182 7 8 113 53 125 53 8 1
12 -20 12 -72z m58 -214 c4 -61 3 -63 -21 -63 -28 0 -37 16 -37 65 0 49 9 66
34 63 18 -3 21 -11 24 -65z m-838 -274 l0 -70 -32 3 c-32 3 -32 3 -34 63 -1
33 0 63 3 68 2 4 17 7 34 7 l29 0 0 -71z m366 -148 l160 -1 3 -45 2 -45 -191
0 -190 0 0 43 c0 51 2 55 32 51 13 -1 95 -3 184 -3z m297 0 c4 -1 6 -21 5 -46
-1 -42 -3 -45 -30 -45 -27 0 -28 2 -28 48 0 45 2 48 23 46 12 -1 25 -3 30 -3z
m145 -52 c0 -35 -3 -39 -27 -39 -24 0 -26 4 -29 44 -2 36 1 45 15 48 29 7 42
-10 41 -53z m-738 6 l0 -45 -135 0 -135 0 0 45 0 45 135 0 135 0 0 -45z m-178
-155 c5 -30 4 -30 -44 -30 -47 0 -48 1 -48 30 0 29 2 30 44 30 41 0 44 -2 48
-30z m146 -2 c-3 -29 -7 -33 -35 -36 -32 -3 -33 -2 -33 32 0 35 1 36 36 36 34
0 35 -1 32 -32z m430 26 c15 -4 22 -14 22 -30 l0 -24 -190 0 -190 0 0 23 c0
13 3 27 7 30 8 9 320 9 351 1z m270 -26 l3 -28 -85 0 c-83 0 -86 1 -86 23 0
13 3 26 6 29 3 3 40 5 82 4 76 -1 77 -1 80 -28z"/>
<path d="M1288 803 c7 -3 16 -2 19 1 4 3 -2 6 -13 5 -11 0 -14 -3 -6 -6z"/>
</g>
</svg>
